<svg xmlns="http://www.w3.org/2000/svg" width="48" height="64" viewBox="0 0 48 64" shape-rendering="crispEdges">
  <rect width="48" height="64" fill="none"/>
  <rect x="18" y="4" width="12" height="4" fill="#2f2830"/>
  <rect x="14" y="8" width="20" height="12" fill="#3b303a"/>
  <rect x="18" y="12" width="4" height="4" fill="#f2c6ad"/>
  <rect x="26" y="12" width="4" height="4" fill="#f2c6ad"/>
  <rect x="16" y="20" width="16" height="8" fill="#f0bfa7"/>
  <rect x="12" y="28" width="24" height="16" fill="#7d3f58"/>
  <rect x="16" y="32" width="16" height="8" fill="#b65b78"/>
  <rect x="10" y="32" width="6" height="14" fill="#f0bfa7"/>
  <rect x="32" y="32" width="6" height="14" fill="#f0bfa7"/>
  <rect x="14" y="44" width="8" height="12" fill="#2f3b59"/>
  <rect x="26" y="44" width="8" height="12" fill="#2f3b59"/>
  <rect x="12" y="56" width="12" height="4" fill="#302b35"/>
  <rect x="24" y="56" width="12" height="4" fill="#302b35"/>
  <rect x="14" y="24" width="20" height="4" fill="#513044"/>
</svg>
